<svg id="Layer_1" data-name="Layer 1" xmlns="http://www.w3.org/2000/svg" viewBox="0 0 402 322.59"><defs><style>.cls-1,.cls-2,.cls-3{fill:#fff;}.cls-2{opacity:0.25;}.cls-3{opacity:0.55;}</style></defs><title>DA_wordmark_white_vertical</title><path class="cls-1" d="M399.11,294.56c-2.32-2.93-6-4.49-10.52-4.49h-9.85L375,320.33H367v2.26h18.87a14.24,14.24,0,0,0,11.81-5.68,22.16,22.16,0,0,0,3.8-8.3C402.7,303.25,401.83,298,399.11,294.56Zm.12,13.53a19.83,19.83,0,0,1-3.39,7.44,12.06,12.06,0,0,1-10,4.8h-8.54l3.46-28h7.85c3.9,0,6.84,1.22,8.75,3.63C400,299.38,400.09,304.47,399.23,308.09Z"/><path class="cls-1" d="M358.55,290h2.39v.05l-4,32.53h-2.39v0Z"/><path class="cls-1" d="M333,290.06h-2.55l-16,32.53h2.52l2.09-4.24h18.58l1,4.24H341l-1-4.24h7.5v-2.26h-8.05Zm-12.85,26,11.29-22.92L337,316.09Z"/><path class="cls-1" d="M282.8,290h18.05l-.26,2H285l-1.61,13.15h13l-.26,1.91h-13l-1.66,13.57h15.7l-.26,2H278.8v0Z"/><path class="cls-1" d="M248,290h23.35l-.24,2H260.66l-3.74,30.56h-2.37v0L258.29,292H247.78Z"/><path class="cls-1" d="M234.52,289.62h2.39v.05l-2.48,20.12a17.14,17.14,0,0,1-1.41,5,14.17,14.17,0,0,1-2.77,4.06,12.6,12.6,0,0,1-3.92,2.72,12,12,0,0,1-4.89,1,10.3,10.3,0,0,1-4.23-.82,9,9,0,0,1-3.14-2.25,9.67,9.67,0,0,1-1.95-3.4,13.46,13.46,0,0,1-.67-4.3,15.93,15.93,0,0,1,.14-2.05L214,289.62h2.39v.05L214,309.76l-.09.92c0,.3,0,.61,0,.91a11.92,11.92,0,0,0,.51,3.56,8.39,8.39,0,0,0,1.51,2.82,7,7,0,0,0,2.45,1.86,8.15,8.15,0,0,0,3.38.67,9.34,9.34,0,0,0,3.91-.82,10.11,10.11,0,0,0,3.12-2.26,12.42,12.42,0,0,0,2.2-3.41,14.75,14.75,0,0,0,1.15-4.24Z"/><path class="cls-1" d="M196.48,291.89a8.2,8.2,0,0,0-2.84-1.4,15.12,15.12,0,0,0-4.06-.48h-8.69l-4,32.53v0h9.81a15.21,15.21,0,0,0,4.75-.69,10.24,10.24,0,0,0,3.56-2,8.69,8.69,0,0,0,2.24-3.13,10.57,10.57,0,0,0,.77-4.09,6.3,6.3,0,0,0-1.69-4.55,8.39,8.39,0,0,0-4.65-2.24,10.14,10.14,0,0,0,2.81-1.2,9.15,9.15,0,0,0,2.27-2,8.65,8.65,0,0,0,1.44-2.59,8.88,8.88,0,0,0,.51-3,7.76,7.76,0,0,0-.54-3A5.6,5.6,0,0,0,196.48,291.89Zm-4.89,12.7a10.18,10.18,0,0,1-3.84.67h-6.36L183,291.92h6.34a8.06,8.06,0,0,1,5.24,1.43,5.17,5.17,0,0,1,1.69,4.15,8.5,8.5,0,0,1-.5,2.87,7.06,7.06,0,0,1-1.55,2.48A7.83,7.83,0,0,1,191.59,304.59Zm4,8.17a7.59,7.59,0,0,1-2.25,5.86c-1.5,1.37-3.69,2.06-6.52,2.06h-7.38L181.18,307h7.42a10.17,10.17,0,0,1,3,.41,6.45,6.45,0,0,1,2.21,1.17,4.83,4.83,0,0,1,1.37,1.8A5.91,5.91,0,0,1,195.64,312.76Z"/><path class="cls-1" d="M162.63,290H165v.05l-4,32.53h-2.39v0Z"/><path class="cls-1" d="M143.93,304.34a9.4,9.4,0,0,0,2-3.1,10.54,10.54,0,0,0,.69-3.88,6.62,6.62,0,0,0-2.35-5.47c-1.55-1.25-3.93-1.88-7.06-1.88h-7.76l-4,32.53v0h2.37l1.81-14.72h3.84a2.55,2.55,0,0,1,1.2.21,1.89,1.89,0,0,1,.69.69L143.17,322a1.16,1.16,0,0,0,1.07.59h2l-8.51-14.17a3.27,3.27,0,0,0-.72-.84,12.9,12.9,0,0,0,3.83-1.09A10,10,0,0,0,143.93,304.34Zm.28-6.64a9.1,9.1,0,0,1-.63,3.45,7.42,7.42,0,0,1-1.85,2.65,8.49,8.49,0,0,1-2.94,1.69,12.06,12.06,0,0,1-3.9.59h-5.06l1.75-14.16H137a8.73,8.73,0,0,1,5.41,1.43A5.19,5.19,0,0,1,144.21,297.7Z"/><path class="cls-1" d="M94,290h23.35l-.24,2H106.67l-3.74,30.56h-2.37v0L104.31,292H93.79Z"/><path class="cls-1" d="M84,292.67l0,0-.67.94a.74.74,0,0,1-.63.41c-.2,0-.43-.14-.7-.45a8.89,8.89,0,0,0-1.06-1,7.76,7.76,0,0,0-1.74-.94,7.05,7.05,0,0,0-2.66-.43,8.11,8.11,0,0,0-3.09.55,7,7,0,0,0-2.3,1.53,6.64,6.64,0,0,0-1.45,2.26,7.59,7.59,0,0,0-.5,2.75,4.45,4.45,0,0,0,.57,2.33,5.43,5.43,0,0,0,1.49,1.61,10.3,10.3,0,0,0,2.1,1.17c.78.33,1.6.65,2.43,1s1.65.66,2.44,1a9.41,9.41,0,0,1,2.12,1.37,6.46,6.46,0,0,1,1.52,2,6.38,6.38,0,0,1,.58,2.84,11.86,11.86,0,0,1-.76,4.21,10.52,10.52,0,0,1-2.18,3.48,10.71,10.71,0,0,1-3.45,2.37,11.45,11.45,0,0,1-4.54.87,10.09,10.09,0,0,1-5-1.14,10.38,10.38,0,0,1-3.41-3.13l0,0,.78-1a1,1,0,0,1,.68-.34.76.76,0,0,1,.5.29l.65.68c.25.27.55.56.89.87a6.29,6.29,0,0,0,1.24.86,8,8,0,0,0,1.7.68,8.46,8.46,0,0,0,2.25.27,8.94,8.94,0,0,0,3.47-.65,7.8,7.8,0,0,0,2.65-1.79,7.9,7.9,0,0,0,1.68-2.68,9.29,9.29,0,0,0,.58-3.33,4.5,4.5,0,0,0-.57-2.35,5.4,5.4,0,0,0-1.49-1.6,9.31,9.31,0,0,0-2.1-1.12l-2.42-.92c-.82-.3-1.64-.64-2.44-1A8.86,8.86,0,0,1,69,303.76a6.22,6.22,0,0,1-1.51-2,6.88,6.88,0,0,1-.56-2.92,9.83,9.83,0,0,1,.67-3.6,9,9,0,0,1,5-5.17,10.48,10.48,0,0,1,4.15-.78,9.44,9.44,0,0,1,4.13.86A8.74,8.74,0,0,1,84,292.67Z"/><path class="cls-1" d="M51,290h2.39v.05l-4,32.53H47v0Z"/><path class="cls-1" d="M21.63,290.07H11.79L8.05,320.33H0v2.26H18.87a14.22,14.22,0,0,0,11.8-5.68,22,22,0,0,0,3.81-8.3c1.26-5.36.4-10.61-2.32-14.05C29.84,291.63,26.2,290.07,21.63,290.07Zm10.65,18a19.83,19.83,0,0,1-3.39,7.44,12.06,12.06,0,0,1-10,4.8H10.33l3.45-28h7.85c3.91,0,6.85,1.22,8.76,3.63C33.09,299.38,33.14,304.47,32.28,308.09Z"/><path class="cls-2" d="M200.13,221.43c-22.35,19.07-48,27.72-60.08,27.72a17.43,17.43,0,0,1-5.09-.64,8.5,8.5,0,0,1-6.24-6.37,6.39,6.39,0,0,1,4.91-7.58c.89-.19,1.77-.41,2.64-.64a19.48,19.48,0,0,0,3.15,1.69,35.17,35.17,0,0,0,13.48,2.33A66.36,66.36,0,0,0,168,236.05,98.55,98.55,0,0,0,200.13,221.43ZM159.41,188.9l.89-.29h0a54.54,54.54,0,0,0,12.36-5.8l.17-.11c-4.51-7.41-15.77-21-43.33-45.05-23.24-20.3-46.58-37.9-46.81-38.08a10.51,10.51,0,0,1,2.1-18c-.24-.43-.46-.86-.68-1.29-.06-.11-.11-.22-.17-.32l-.54-1.08-.11-.22c-.45-.93-.89-1.85-1.3-2.78C72.64,70,66.13,62.2,63.24,55.42a6.36,6.36,0,0,0-5.86-3.89A6.38,6.38,0,0,0,51,58.64c.13,1.21,3.47,29.67,20,50.58l-3.49,1.3A6.4,6.4,0,0,0,66.52,122C67.25,122.45,132.59,161.77,159.41,188.9Z"/><path class="cls-3" d="M193.23,221a91.55,91.55,0,0,1-26.15,11.07,62.46,62.46,0,0,1-14.18,1.78,31.09,31.09,0,0,1-11.88-2c-5.59-2.38-6.79-6.23-7-8.31a6.39,6.39,0,0,1,5.67-7l1.2-.14a33,33,0,0,0,6.58,4.76,43.88,43.88,0,0,0,21.44,5.24A61.69,61.69,0,0,0,193.23,221ZM177,180.33h0a23.81,23.81,0,0,0,6-6.5h0a4.31,4.31,0,0,0,.66-1.82c0-1.17-1.13-12.66-40.12-54.69-20.84-22.47-41.67-41.93-42.54-42.74a11.31,11.31,0,0,1,3.46-18.77c-1-2.47-1.85-5-2.59-7.44-6.58-6.29-10.59-13.23-12.26-18.64a6.4,6.4,0,0,0-7.06-4.44,6.44,6.44,0,0,0-5.41,6.36c0,1.23.37,29.87,14.66,52.41L88.26,85A6.41,6.41,0,0,0,86,96.3c.23.17,23.79,18,47,38.27C160.6,158.65,172.22,172.54,177,180.33Z"/><path class="cls-1" d="M350.3,124.7a6.34,6.34,0,0,1-7.66,3.18,28.35,28.35,0,0,0-7.9-1.72,3.64,3.64,0,0,0-2.15.5c-1.93,1.26-4.17,5.63-7,11.18a216.51,216.51,0,0,1-17.37,29.24c-10.59,14.93-23.84,27.49-36.65,39.64-16.24,15.4-31.58,29.95-40.17,47.88l-.19.4H217.33l.39-1c9.17-22.54,27.43-39.85,45.09-56.6,12.36-11.73,25.15-23.85,35-37.77A206.94,206.94,0,0,0,314.24,132c4.87-9.55,8.44-16.55,16.5-18.22-1.43-2.4-4.74-7.17-8.86-8a6.67,6.67,0,0,0-1.27-.13c-2.46,0-5.25,1.39-8.3,4.12-8.44,7.56-18.67,15.28-30.57,15.28a26.2,26.2,0,0,1-2.94-.16c-10.07-1.09-19.35-7.68-28.37-20.16-23.81-32.92-57.38-39.84-84.36-45.41H166c-3.69-.77-7.17-1.48-10.55-2.25a73,73,0,0,1-38.67-22.33c2,10.38,5.45,19.1,10.3,26a6.4,6.4,0,0,1-4.29,10l-.13,0c8.72,8.45,21.35,21,33.91,34.54,44.84,48.35,44.84,62.2,44.84,66.75,0,8.89-6.7,18.27-18.39,25.74a72.21,72.21,0,0,1-23.13,9.53,28.76,28.76,0,0,0,8.95,1.35c8.48,0,17.75-3.12,27.52-9.25l.19-.11c7.75-4.52,14.89-6.81,21.22-6.81a24.6,24.6,0,0,1,4.9.49c6.4,1.32,9.5,4.9,10.06,5.61l.1.12-10,7.92c-.51-.44-1.91-1.33-4.88-1.33s-7.73.87-14.86,5c-11.83,7.41-23.31,11.16-34.12,11.16a39.1,39.1,0,0,1-19.06-4.62c-6.75-3.76-10.94-9.23-10.94-14.28a6.39,6.39,0,0,1,6.37-6.39A59,59,0,0,0,176.15,187c7.58-4.85,12.49-10.72,12.49-15,0-4-4-17.73-41.43-58-21-22.61-41.92-42.17-42.8-43a6.4,6.4,0,0,1,3.42-11l3.69-.54C99.64,35.49,102.29,7,102.4,5.77a6.42,6.42,0,0,1,6-5.76h.3A6.4,6.4,0,0,1,115,5.16c4.46,22.72,28.3,36,43.23,39.4,3.3.75,6.75,1.46,10.4,2.21,27.6,5.7,65.4,13.49,92.11,50.43,6.69,9.25,13.22,14.28,19.42,15a13.82,13.82,0,0,0,1.58.09c6,0,12.77-3.71,22.06-12,5.48-4.9,11.1-7.38,16.7-7.38a19.75,19.75,0,0,1,4,.41c2.87.6,12.72,3.65,19.14,17.65a17.49,17.49,0,0,0,4.74,5.73A6.38,6.38,0,0,1,350.3,124.7Z"/></svg>