<svg id="Layer_1" data-name="Layer 1" xmlns="http://www.w3.org/2000/svg" viewBox="0 0 1792 199.75"><defs><style>.cls-1{fill:#09328b;}.cls-2{fill:#c1cce2;}.cls-3{fill:#6b84b8;}</style></defs><title>DA_wordmark_blue_horizontal</title><path class="cls-1" d="M1780.8,91.12c-9-11.38-23.11-17.4-40.79-17.4h-38.16L1687.37,191h-31.2v8.75h73.12c19,0,34.44-7.41,45.76-22,8.47-10.93,12.68-23.52,14.73-32.16C1794.7,124.81,1791.34,104.45,1780.8,91.12Zm.46,52.44c-1.85,7.79-5.62,19.12-13.13,28.81-9.58,12.36-22.64,18.63-38.84,18.63h-33.1l13.4-108.52H1740c15.13,0,26.54,4.73,33.93,14.07C1784.41,109.8,1784.59,129.52,1781.26,143.56Z"/><path class="cls-1" d="M1623.6,73.48h9.26l0,.2-15.41,126.07h-9.27l0-.2Z"/><path class="cls-1" d="M1524.48,73.66h-9.88l-62.09,126.09h9.75l8.11-16.46h72l4,16.46h9l-4-16.46h29v-8.75h-31.19Zm-49.8,100.88,43.75-88.84,21.78,88.84Z"/><path class="cls-1" d="M1330,73.48h70l-1,7.66h-60.6l-6.27,51h50.46l-1,7.39h-50.36l-6.46,52.58h60.87l-1,7.66h-70l0-.2Z"/><path class="cls-1" d="M1195.23,73.48h90.51l-.94,7.84h-40.57l-14.5,118.43h-9.18l0-.2,14.48-118.23H1194.3Z"/><path class="cls-1" d="M1142.91,72h9.27l0,.2-9.61,78a67.15,67.15,0,0,1-5.49,19.49,55.27,55.27,0,0,1-10.71,15.76,49.2,49.2,0,0,1-15.23,10.54,46.4,46.4,0,0,1-18.94,3.84,40.59,40.59,0,0,1-16.4-3.17,35.29,35.29,0,0,1-12.16-8.73,37.75,37.75,0,0,1-7.56-13.18,52.05,52.05,0,0,1-2.59-16.66,59.63,59.63,0,0,1,.54-7.94l9.54-78.1h9.27l0,.2L1063.17,150c-.12,1.15-.22,2.34-.31,3.55s-.13,2.36-.13,3.54a46,46,0,0,0,2,13.79,31.7,31.7,0,0,0,5.84,10.92,27,27,0,0,0,9.5,7.21,31.11,31.11,0,0,0,13.09,2.6,35.9,35.9,0,0,0,15.14-3.18,38.42,38.42,0,0,0,12.09-8.77,47.34,47.34,0,0,0,8.55-13.21,57.71,57.71,0,0,0,4.44-16.41Z"/><path class="cls-1" d="M995.48,80.77a30.91,30.91,0,0,0-11-5.42,58.47,58.47,0,0,0-15.71-1.87H935.05l-15.5,126.07,0,.2h38a58.8,58.8,0,0,0,18.39-2.68,39.06,39.06,0,0,0,13.81-7.69,33.17,33.17,0,0,0,8.68-12.12,40.64,40.64,0,0,0,3-15.86c0-7.2-2.21-13.12-6.55-17.62-4.19-4.33-10.26-7.24-18-8.67a39.4,39.4,0,0,0,10.89-4.66,35.55,35.55,0,0,0,8.81-7.78,34.5,34.5,0,0,0,7.56-21.69A30.14,30.14,0,0,0,1002,89.43,21.68,21.68,0,0,0,995.48,80.77Zm-19,49.22a39.29,39.29,0,0,1-14.88,2.57H937l6.36-51.69H968c9.1,0,15.93,1.87,20.3,5.56s6.56,9.09,6.56,16.06a32.87,32.87,0,0,1-1.94,11.15,26.89,26.89,0,0,1-6,9.59A30,30,0,0,1,976.52,130Zm15.72,31.67c0,9.75-2.94,17.38-8.75,22.69s-14.3,8-25.23,8H929.63l6.54-53h28.76a39.11,39.11,0,0,1,11.65,1.6,24.84,24.84,0,0,1,8.57,4.5,19,19,0,0,1,5.28,7A22.71,22.71,0,0,1,992.24,161.66Z"/><path class="cls-1" d="M864.31,73.48h9.26l0,.2L858.14,199.75h-9.27l0-.2Z"/><path class="cls-1" d="M791.81,129a36.56,36.56,0,0,0,7.6-12A41.12,41.12,0,0,0,802.1,102c0-9.21-3.07-16.34-9.1-21.19s-15.24-7.29-27.39-7.29H735.55L720.14,199.55l0,.2h9.18l7-57H751.2a10.48,10.48,0,0,1,4.67.78,7.72,7.72,0,0,1,2.64,2.69l30.35,51.26a4.56,4.56,0,0,0,4.16,2.31h7.88l-33-54.91a11.36,11.36,0,0,0-2.8-3.25A51.88,51.88,0,0,0,780,137.36,39,39,0,0,0,791.81,129Zm1.11-25.71a34.91,34.91,0,0,1-2.48,13.37,28.06,28.06,0,0,1-7.16,10.25,32.46,32.46,0,0,1-11.37,6.55,46.38,46.38,0,0,1-15.11,2.3H737.16L744,80.87h20.84c9.17,0,16.23,1.87,21,5.57S792.92,95.79,792.92,103.29Z"/><path class="cls-1" d="M598.43,73.48h90.5L688,81.32H647.42l-14.5,118.43h-9.18l0-.2L638.25,81.32H597.5Z"/><path class="cls-1" d="M559.49,83.78l.09.11L557,87.55a3,3,0,0,1-2.47,1.6c-.77,0-1.66-.58-2.71-1.75a29.84,29.84,0,0,0-4.11-3.67A29.28,29.28,0,0,0,541,80.06a27.35,27.35,0,0,0-10.29-1.68,31.34,31.34,0,0,0-12,2.17,26.55,26.55,0,0,0-8.93,5.92,25.85,25.85,0,0,0-5.61,8.75,29.19,29.19,0,0,0-1.94,10.65,17.28,17.28,0,0,0,2.2,9,21.24,21.24,0,0,0,5.78,6.26,39.5,39.5,0,0,0,8.15,4.52c3,1.27,6.2,2.52,9.42,3.73s6.4,2.56,9.45,4a37.09,37.09,0,0,1,8.22,5.32,23.06,23.06,0,0,1,8.12,18.65,45.43,45.43,0,0,1-3,16.3,39.4,39.4,0,0,1-21.81,22.66,44.06,44.06,0,0,1-17.6,3.4c-7.59,0-14.09-1.49-19.31-4.43a39.91,39.91,0,0,1-13.23-12.11l-.07-.11,3-3.93a3.8,3.8,0,0,1,2.64-1.32,2.94,2.94,0,0,1,2,1.13l2.49,2.62c1,1,2.14,2.17,3.46,3.37a24.42,24.42,0,0,0,4.81,3.36,32.1,32.1,0,0,0,6.59,2.61,32.58,32.58,0,0,0,8.72,1.06,34.7,34.7,0,0,0,13.45-2.52,29.79,29.79,0,0,0,16.77-17.34,36.47,36.47,0,0,0,2.25-12.88,17.5,17.5,0,0,0-2.2-9.12,21,21,0,0,0-5.77-6.22,36.85,36.85,0,0,0-8.15-4.33c-3-1.18-6.18-2.37-9.39-3.56s-6.36-2.5-9.44-3.92a34.56,34.56,0,0,1-8.28-5.33A23.81,23.81,0,0,1,495.7,119a26.39,26.39,0,0,1-2.2-11.34,38.53,38.53,0,0,1,2.59-14,36.15,36.15,0,0,1,7.47-11.85,35.76,35.76,0,0,1,11.94-8.18,40.5,40.5,0,0,1,16.09-3,36.23,36.23,0,0,1,16,3.36A33.65,33.65,0,0,1,559.49,83.78Z"/><path class="cls-1" d="M431.59,73.48h9.26l0,.2L425.42,199.75h-9.27l0-.2Z"/><path class="cls-1" d="M317.85,73.72H279.69L265.21,191H234v8.75h73.12c19.05,0,34.44-7.41,45.76-22,8.47-10.93,12.69-23.52,14.73-32.16,4.92-20.76,1.56-41.12-9-54.45C349.63,79.74,335.53,73.72,317.85,73.72Zm41.25,69.84c-1.85,7.79-5.63,19.12-13.14,28.81C336.39,184.73,323.32,191,307.12,191H274l13.4-108.52h30.43c15.12,0,26.53,4.73,33.92,14.07C362.24,109.8,362.42,129.52,359.1,143.56Z"/><path class="cls-2" d="M116.82,173.46c-17.51,14.93-37.57,21.71-47.06,21.71a13.91,13.91,0,0,1-4-.5,6.69,6.69,0,0,1-4.89-5,5,5,0,0,1,3.85-5.94c.69-.15,1.38-.32,2.07-.5a16,16,0,0,0,2.46,1.32,27.41,27.41,0,0,0,10.56,1.83,52.56,52.56,0,0,0,11.86-1.48A77.42,77.42,0,0,0,116.82,173.46ZM84.92,148l.7-.22h0a42.68,42.68,0,0,0,9.69-4.54l.13-.09c-3.53-5.8-12.36-16.42-33.94-35.28C43.3,91.93,25,78.14,24.83,78a8.24,8.24,0,0,1,1.64-14.13l-.53-1-.13-.25-.42-.85-.09-.17c-.35-.72-.69-1.45-1-2.18-7.33-4.59-12.43-10.7-14.69-16a5,5,0,0,0-4.59-3,5,5,0,0,0-1.28.16A5,5,0,0,0,0,45.93c.11,1,2.72,23.24,15.69,39.63l-2.73,1a5,5,0,0,0-.83,9C12.73,95.92,63.91,126.72,84.92,148Z"/><path class="cls-3" d="M111.42,173.1a71.72,71.72,0,0,1-20.49,8.67,48.9,48.9,0,0,1-11.11,1.4,24.24,24.24,0,0,1-9.3-1.58c-4.38-1.86-5.32-4.88-5.49-6.51a5,5,0,0,1,4.45-5.5l.94-.11a25.6,25.6,0,0,0,5.15,3.73,34.41,34.41,0,0,0,16.79,4.1A48.33,48.33,0,0,0,111.42,173.1Zm-12.7-31.84h0a18.26,18.26,0,0,0,4.72-5.09h0a3.37,3.37,0,0,0,.52-1.42c0-.92-.88-9.92-31.42-42.84C56.22,74.3,39.91,59.06,39.22,58.42a8.85,8.85,0,0,1,2.71-14.7c-.77-1.94-1.44-3.89-2-5.83a36,36,0,0,1-9.6-14.6,5,5,0,0,0-4.77-3.54,4.87,4.87,0,0,0-.76.06,5,5,0,0,0-4.24,5c0,1,.29,23.4,11.48,41.06l-2.83.72a5,5,0,0,0-1.76,8.86c.18.14,18.64,14.06,36.85,30C85.85,124.27,95,135.16,98.72,141.26Z"/><path class="cls-1" d="M234.45,97.68a5,5,0,0,1-4.45,2.74,4.79,4.79,0,0,1-1.55-.25,22.27,22.27,0,0,0-6.19-1.34,2.87,2.87,0,0,0-1.68.39c-1.52,1-3.27,4.41-5.49,8.76a170.23,170.23,0,0,1-13.6,22.9c-8.3,11.69-18.67,21.53-28.71,31.05C160.06,174,148,185.39,141.31,199.44l-.15.31H130.29l.31-.76c7.18-17.65,21.48-31.22,35.31-44.34,9.69-9.18,19.71-18.68,27.44-29.58a160.67,160.67,0,0,0,12.85-21.66c3.82-7.48,6.62-13,12.93-14.27-1.12-1.88-3.71-5.62-6.94-6.29a4.71,4.71,0,0,0-1-.1c-1.92,0-4.11,1.08-6.5,3.22-6.61,5.92-14.62,12-23.95,12a22,22,0,0,1-2.29-.12c-7.89-.86-15.16-6-22.23-15.8-18.65-25.78-44.95-31.21-66.08-35.57h-.07c-2.89-.6-5.62-1.16-8.27-1.76A57.11,57.11,0,0,1,51.51,27.19c1.57,8.13,4.27,15,8.07,20.34a5.08,5.08,0,0,1,.51,4.87,5,5,0,0,1-3.87,3l-.1,0C63,62,72.85,71.85,82.68,82.45c35.13,37.87,35.13,48.72,35.13,52.29,0,7-5.25,14.32-14.41,20.16a56.66,56.66,0,0,1-18.12,7.47,22.45,22.45,0,0,0,7,1c6.65,0,13.9-2.43,21.56-7.24l.15-.09c6.07-3.53,11.66-5.33,16.62-5.33a19.31,19.31,0,0,1,3.84.38,13.66,13.66,0,0,1,7.88,4.39l.08.11-7.87,6.2a5.67,5.67,0,0,0-3.82-1.05c-2.22,0-6.06.68-11.64,3.93-9.27,5.79-18.26,8.73-26.73,8.73a30.6,30.6,0,0,1-14.93-3.62c-5.29-2.94-8.57-7.22-8.57-11.18a5,5,0,0,1,5-5A46.12,46.12,0,0,0,98,146.45c6-3.79,9.79-8.39,9.79-11.71,0-3.15-3.17-13.88-32.45-45.46-16.43-17.72-32.84-33-33.53-33.68A5,5,0,0,1,44.52,47l2.88-.42c-9.3-18.75-7.23-41.08-7.13-42A5,5,0,0,1,45,0h.23a5,5,0,0,1,4.91,4C53.63,21.84,72.31,32.25,84,34.91c2.58.58,5.28,1.14,8.14,1.73,21.62,4.46,51.23,10.57,72.16,39.5,5.24,7.25,10.35,11.19,15.2,11.71a10.31,10.31,0,0,0,1.24.07c4.68,0,10-2.9,17.29-9.42,4.28-3.84,8.69-5.79,13.08-5.79a14.94,14.94,0,0,1,3.11.33c2.24.47,10,2.85,15,13.82a13.65,13.65,0,0,0,3.71,4.49A5,5,0,0,1,234.45,97.68Z"/></svg>